# AST/ASF file generated using VICON BodyLanguage
# -----------------------------------------------
:version 1.10
:name VICON
:units
  mass 1.0
  length 0.45
  angle deg
:documentation
   .ast/.asf automatically generated from VICON data using
   VICON BodyBuilder and BodyLanguage model FoxedUp or BRILLIANT.MOD
:root
   order TX TY TZ RX RY RZ
   axis XYZ
   position 0 0 0  
   orientation 0 -0 0 
:bonedata
  begin
     id 1 
     name lhipjoint
     direction 0.432694 -0.693742 0.575759 
     length 2.19277 
     axis 0 -0 0  XYZ
  end
  begin
     id 2 
     name lfemur
     direction 0.34202 -0.939693 0  
     length 6.69022  
     axis 0 -0 20  XYZ
    dof rx ry rz
    limits (-160.0 20.0)
           (-70.0 70.0)
           (-60.0 70.0)
  end
  begin
     id 3 
     name ltibia
     direction 0.34202 -0.939693 0   
     length 6.50337   
     axis 0 -0 20   XYZ
    dof rx
    limits (-10.0 170.0)
  end
  begin
     id 4 
     name lfoot
     direction 0.158999 -0.435969 0.885805   
     length 2.70564   
     axis -90 -1.13533e-015 20   XYZ
    dof rx rz
    limits (-45.0 90.0)
           (-70.0 20.0)
  end
  begin
     id 5 
     name ltoes
     direction -0.00592919 0.00964381 0.999936   
     length 1.29929   
     axis -90 -1.13533e-015 20   XYZ
    dof rx
    limits (-90.0 20.0)
  end
  begin
     id 6 
     name rhipjoint
     direction -0.414359 -0.700339 0.581234   
     length 2.17212  
     axis 0 -0 0  XYZ 
  end
  begin
     id 7 
     name rfemur
     direction -0.34202 -0.939693 0   
     length 7.17659   
     axis 0 -0 -20   XYZ
    dof rx ry rz
    limits (-160.0 20.0)
           (-70.0 70.0)
           (-70.0 60.0)
  end
  begin
     id 8 
     name rtibia
     direction -0.34202 -0.939693 0   
     length 6.36669   
     axis 0 -0 -20   XYZ
    dof rx
    limits (-10.0 170.0)
 end
 begin
     id 9 
     name rfoot
     direction -0.137064 -0.37658 0.916188   
     length 2.22351  
     axis -90 1.13533e-015 -20   XYZ
    dof rx rz
    limits (-45.0 90.0)
           (-20.0 70.0)
  end
  begin
     id 10 
     name rtoes
     direction -0.000784077 -0.00289101 0.999996   
     length 1.09522   
     axis -90 1.13533e-015 -20   XYZ
    dof rx
    limits (-90.0 20.0)
  end
  begin
     id 11 
     name lowerback
     direction -0.0176242 0.984912 -0.172157   
     length 1.65301   
     axis 0 -0 0   XYZ
    dof rx ry rz
    limits (-20.0 45.0)
           (-30.0 30.0)
           (-30.0 30.0)
  end
  begin
     id 12 
     name upperback
     direction -0.00218128 0.998776 -0.0494072   
     length 1.67776   
     axis 0 -0 0   XYZ
    dof rx ry rz
    limits (-20.0 45.0)
           (-30.0 30.0)
           (-30.0 30.0)
  end
  begin
     id 13 
     name thorax
     direction 0.00544186 0.999658 0.0255711   
     length 1.72293   
     axis 0 -0 0   XYZ
    dof rx ry rz
    limits (-20.0 45.0)
           (-30.0 30.0)
           (-30.0 30.0)
  end
  begin
     id 14 
     name lowerneck
     direction -0.105325 0.983841 0.144785   
     length 2.14226   
     axis 0 -0 0   XYZ
    dof rx ry rz
    limits (-20.0 45.0)
           (-30.0 30.0)
           (-30.0 30.0)
  end
  begin
     id 15 
     name upperneck
     direction 0.0547957 0.988053 -0.144041   
     length 2.17508   
     axis 0 -0 0   XYZ
    dof rx ry rz
    limits (-20.0 45.0)
           (-30.0 30.0)
           (-30.0 30.0)
  end
  begin
     id 16
     name head
     direction 0.0247488 0.997534 -0.0656813  
     length 2.20048  
     axis 0 -0 0   XYZ
    dof rx ry rz
    limits (-20.0 45.0)
           (-30.0 30.0)
           (-30.0 30.0)
  end
  begin
     id 17 
     name lclavicle
     direction 0.820559 0.567247 -0.0701026  
     length 4.09615  
     axis 0 -0 0   XYZ
    dof ry rz
    limits (-20.0 10.0)
           (0.0 20.0)
  end
  begin
     id 18 
     name lhumerus
     direction 0.999977 -0.0067566 -9.96392e-005   
     length 4.59333   
     axis -180 -30 -90   XYZ
    dof rx ry rz
    limits (-60.0 90.0)
           (-90.0 90.0)
           (-90.0 90.0)
  end
  begin
     id 19
     name lradius
     direction 1 -4.48982e-011 -2.53425e-027   
     length 2.81151   
     axis -180 -30 -90   XYZ
    dof rx
    limits (-10.0 170.0)
  end
  begin
     id 20
     name lwrist
     direction 1 -4.48939e-011 -7.39254e-028   
     length 1.40576   
     axis 2.56395e-016 90 90   XYZ
    dof ry
    limits (-180.0 0.0)
 end
  begin
     id 21 
     name lhand
     direction 1 -4.48939e-011 -1.47851e-027   
     length 0.895651   
     axis 9.43423e-016 90 90   XYZ
    dof rx rz
    limits (-90.0 90.0)
           (-45.0 45.0)
  end
  begin
     id 22 
     name lfingers
     direction 1 -4.48978e-011 -2.95702e-027   
     length 0.722097   
     axis 1.88685e-015 90 90   XYZ
    dof rx
    limits (0.0 90.0)
  end
  begin
     id 23
     name lthumb
     direction 0.707107 -6.34931e-011 0.707107   
     length 1.03679   
     axis -90 45 -9.86935e-015   XYZ
    dof rx rz
    limits (-45.0 45.0)
           (-45.0 45.0)
  end
  begin
     id 24 
     name rclavicle
     direction -0.831414 0.553102 -0.0531864   
     length 4.24872  
     axis 0 -0 0   XYZ 
    dof ry rz
    limits (-10.0 20.0)
           (-20.0 0.0)
  end
  begin
     id 25 
     name rhumerus
     direction -0.999916 -0.000939607 0.0129331  
     length 4.74834   
     axis -180 30 90   XYZ
    dof rx ry rz
    limits (-90.0 60.0)
           (-90.0 90.0)
           (-90.0 90.0)
  end
  begin
     id 26 
     name rradius
     direction -1 -4.48956e-011 -1.31752e-027   
     length 2.79907   
     axis -180 30 90   XYZ
    dof rx
    limits (-10.0 170.0)
  end
  begin
     id 27 
     name rwrist
     direction -1 -4.4897e-011 -7.39254e-028   
     length 1.39954   
     axis 2.56395e-016 -90 -90   XYZ
    dof ry
    limits (-180.0 0.0)
  end
  begin
     id 28
     name rhand
     direction -0.999997 -0.00250697 0.000800838   
     length 0.953304   
     axis 9.43423e-016 -90 -90   XYZ
    dof rx rz
    limits (-90.0 90.0)
           (-45.0 45.0)
  end
  begin
     id 29
     name rfingers
     direction -1 -4.48954e-011 -2.95702e-027   
     length 0.763342   
     axis 1.88685e-015 -90 -90   XYZ
    dof rx
    limits (0.0 90.0)
  end
  begin
     id 30
     name rthumb
     direction -0.709701 -0.00217037 0.7045   
     length 1.10115   
     axis -90 -45 9.86935e-015   XYZ
    dof rx rz
    limits (-45.0 45.0)
           (-45.0 45.0)
  end
:hierarchy
  begin
    root lhipjoint rhipjoint lowerback
    lhipjoint lfemur
    lfemur ltibia
    ltibia lfoot
    lfoot ltoes
    rhipjoint rfemur
    rfemur rtibia
    rtibia rfoot
    rfoot rtoes
    lowerback upperback
    upperback thorax
    thorax lowerneck lclavicle rclavicle
    lowerneck upperneck
    upperneck head
    lclavicle lhumerus
    lhumerus lradius
    lradius lwrist
    lwrist lhand lthumb
    lhand lfingers
    rclavicle rhumerus
    rhumerus rradius
    rradius rwrist
    rwrist rhand rthumb
    rhand rfingers
  end

#!OML:ASF G:\ViconDB\ViconDB\414\test\team2\shane.ASF
:FULLY-SPECIFIED
:DEGREES
116
root 3.40726 13.846 -20.2178 84.1441 55.9071 -35.3688
lowerback 25.7748 3.42465 -10.5028
upperback 7.40487 1.25391 -6.56818
thorax -6.06102 0.669296 -1.66275
lowerneck -22.1688 -9.94908 -17.589
upperneck 2.45792 -9.36815 9.77525
head 5.4586 -4.18717 4.81257
rclavicle -5.28767e-014 -9.93923e-014
rhumerus 58.3794 -17.4229 -49.4018
rradius 51.0944
rwrist 48.5383
rhand -60.3834 -43.0698
rfingers 7.12502
rthumb -32.5167 -70.1707
lclavicle -5.28767e-014 -9.93923e-014
lhumerus 69.0731 8.06384 30.9371
lradius 40.5808
lwrist -36.9058
lhand -71.3159 88.1557
lfingers 7.12502
lthumb -42.8414 -472.457
rfemur -5.61738 -18.3944 17.953
rtibia 42.0155
rfoot 8.46562 16.1779
rtoes -11.8588
lfemur -61.011 8.20959 24.3791
ltibia 68.3813
lfoot -23.8846 -4.14076
ltoes -5.38419
117
root 3.44201 13.7752 -19.9168 85.8762 57.5103 -34.0825
lowerback 25.4163 3.3948 -10.3367
upperback 7.41356 1.34643 -6.279
thorax -5.88366 0.708399 -1.44358
lowerneck -22.2744 -10.1524 -17.4924
upperneck 3.13619 -9.49303 8.51926
head 5.62229 -4.33232 4.35255
rclavicle -1.70557e-013 -2.66371e-014
rhumerus 56.0021 -17.1748 -48.9332
rradius 54.3304
rwrist 48.8504
rhand -60.4321 -44.5638
rfingers 7.12502
rthumb -32.5631 -71.6552
lclavicle -1.70557e-013 -2.66371e-014
lhumerus 68.0174 7.8249 30.5514
lradius 42.3475
lwrist -36.9363
lhand -71.3331 -91.0459
lfingers 7.12502
lthumb -42.8576 -475.342
rfemur -6.3211 -19.1554 18.4118
rtibia 43.6629
rfoot 8.03653 17.4052
rtoes -12.2474
lfemur -59.1086 7.65022 23.855
ltibia 68.1014
lfoot -23.487 -4.52731
ltoes -5.37818
118
root 3.47136 13.7079 -19.6169 88.0539 59.2093 -32.3727
lowerback 24.8002 3.23669 -9.9832
upperback 7.55353 1.38519 -5.91843
thorax -5.42884 0.713741 -1.21789
lowerneck -22.2419 -10.308 -17.7417
upperneck 3.28547 -9.48206 7.51901
head 5.61085 -4.38817 4.05876
rclavicle 1.75924e-014 1.54853e-013
rhumerus 53.6161 -16.8677 -47.6507
rradius 57.8735
rwrist 47.6797
rhand -60.7233 -44.1376
rfingers 7.12502
rthumb -32.8401 -71.1714
lclavicle 1.75924e-014 1.54853e-013
lhumerus 67.0665 8.12336 29.8333
lradius 43.938
lwrist -36.9619
lhand -70.8855 -93.6907
lfingers 7.12502
lthumb -42.4386 -478.132
rfemur -7.36644 -20.0132 19.1511
rtibia 45.6599
rfoot 7.27126 18.4335
rtoes -12.9491
lfemur -57.5576 7.50504 23.3012
ltibia 67.7921
lfoot -23.1466 -5.06714
ltoes -5.44885
119
root 3.51877 13.6306 -19.2988 90.5358 60.5654 -30.2126
lowerback 24.3248 3.11511 -9.67411
upperback 7.73643 1.42562 -5.68309
thorax -4.99344 0.721452 -1.11485
lowerneck -22.0888 -10.6566 -17.5357
upperneck 3.47009 -9.83542 6.17708
head 5.58254 -4.64064 3.53873
rclavicle 1.28142e-013 1.88348e-014
rhumerus 50.9324 -16.6365 -46.2297
rradius 61.0858
rwrist 46.4153
rhand -61.5223 -43.3028
rfingers 7.12502
rthumb -33.5998 -70.1745
lclavicle 1.28142e-013 1.88348e-014
lhumerus 66.7869 7.96816 30.147
lradius 44.9176
lwrist -37.49
lhand -71.0365 -96.0185
lfingers 7.12502
lthumb -42.58 -480.411
rfemur -8.42326 -21.0736 19.5577
rtibia 47.756
rfoot 6.08261 19.2069
rtoes -13.0328
lfemur -55.8489 7.56086 22.2658
ltibia 67.315
lfoot -22.5622 -5.57881
ltoes -4.97129
120
root 3.54479 13.5585 -19.0176 93.3091 62.1534 -27.8843
lowerback 23.6547 2.90098 -8.93285
upperback 7.89084 1.45734 -5.47482
thorax -4.48947 0.726172 -1.27428
lowerneck -22.2969 -10.7842 -17.7239
upperneck 3.88804 -9.78099 5.41494
head 5.7057 -4.66395 3.30778
rclavicle 1.13108e-013 5.75482e-014
rhumerus 48.4705 -16.5327 -45.5901
rradius 63.9684
rwrist 46.7233
rhand -61.7179 -42.9108
rfingers 7.12502
rthumb -33.7857 -69.7419
lclavicle 1.28142e-013 1.88348e-014
lhumerus 66.7869 7.96816 30.147
lradius 44.9176
lwrist -37.49
lhand -71.0365 -96.0185
lfingers 7.12502
lthumb -42.58 -480.411
rfemur -9.87118 -21.9421 20.2855
rtibia 50.1049
rfoot 4.83001 19.6412
rtoes -14.922
lfemur -54.3287 7.09966 21.971
ltibia 66.9368
lfoot -22.1463 -5.28284
ltoes -5.40072
121
root 3.58017 13.4785 -18.728 96.2147 63.3344 -25.2201
lowerback 23.3616 2.75886 -8.53893
upperback 7.99448 1.43733 -5.32825
thorax -4.228 0.715404 -1.31321
lowerneck -21.9621 -10.5852 -17.3925
upperneck 3.24075 -9.50834 4.25854
head 5.33637 -4.56796 2.94451
rclavicle -2.89828e-013 -2.3059e-014
rhumerus 45.6746 -16.3136 -44.511
rradius 66.6604
rwrist 47.5627
rhand -62.028 -43.7973
rfingers 7.12502
rthumb -34.0803 -70.5632
lclavicle 1.28142e-013 1.88348e-014
lhumerus 66.7869 7.96816 30.147
lradius 44.9176
lwrist -37.49
lhand -71.0365 -96.0185
lfingers 7.12502
lthumb -42.58 -480.411
rfemur -11.3036 -23.0532 20.5843
rtibia 52.5748
rfoot 3.42026 20.0647
rtoes -15.7054
lfemur -52.6867 6.7121 21.2606
ltibia 66.4812
lfoot -21.6451 -5.40117
ltoes -5.06736
122
root 3.61598 13.3997 -18.442 99.7471 64.4649 -22.046
lowerback 23.1816 2.52593 -8.15656
upperback 7.96133 1.27719 -5.13841
thorax -4.17061 0.64666 -1.27046
lowerneck -21.5442 -10.7899 -17.8837
upperneck 3.01992 -9.73632 4.44032
head 5.25759 -4.66403 3.0592
rclavicle 1.59028e-014 5.08889e-014
rhumerus 42.8989 -15.6354 -42.8366
rradius 69.234
rwrist 47.2879
rhand -62.4591 -44.1048
rfingers 7.12502
rthumb -34.4896 -70.7785
lclavicle 1.28142e-013 1.88348e-014
lhumerus 66.7869 7.96816 30.147
lradius 44.9176
lwrist -37.49
lhand -71.0365 -96.0185
lfingers 7.12502
lthumb -42.58 -480.411
rfemur -13.1014 -23.9682 21.043
rtibia 55.1584
rfoot 2.33585 19.9019
rtoes -15.3686
lfemur -51.2944 6.69514 20.599
ltibia 65.9933
lfoot -21.1345 -6.00033
ltoes -5.78142
123
root 3.64342 13.3291 -18.1662 103.237 65.3943 -18.8458
lowerback 23.2937 2.35236 -8.06735
upperback 7.83434 1.08754 -4.89014
thorax -4.36432 0.567937 -1.00604
lowerneck -21.0393 -10.7734 -17.9808
upperneck 2.53376 -9.72279 3.97359
head 5.00273 -4.66091 2.95061
rclavicle -1.19271e-013 -2.94201e-014
rhumerus 40.3593 -14.7734 -41.1209
rradius 71.6108
rwrist 47.2113
rhand -62.7809 -44.0735
rfingers 7.12502
rthumb -34.7951 -70.6771
lclavicle 1.28142e-013 1.88348e-014
lhumerus 66.7869 7.96816 30.147
lradius 44.9176
lwrist -37.49
lhand -71.0365 -96.0185
lfingers 7.12502
lthumb -42.58 -480.411
rfemur -14.9848 -25.0606 21.368
rtibia 57.6706
rfoot 1.29216 19.9471
rtoes -15.6744
lfemur -49.8141 6.12037 20.1151
ltibia 65.3818
lfoot -20.4862 -6.23843
ltoes -5.88546
124
root 3.68959 13.2551 -17.8747 106.957 66.1308 -15.3377
lowerback 23.4875 2.24599 -8.02903
upperback 7.7755 0.960578 -4.75496
thorax -4.52285 0.518272 -0.853784
lowerneck -20.8206 -10.8429 -17.7955
upperneck 2.50135 -9.85277 3.57085
head 4.94304 -4.73977 2.78572
rclavicle -7.95139e-014 2.06736e-014
rhumerus 37.5908 -14.0704 -39.3834
rradius 74.1037
rwrist 47.4941
rhand -62.6347 -44.3942
rfingers 7.12502
rthumb -34.6563 -71.0298
lclavicle 1.28142e-013 1.88348e-014
lhumerus 66.7869 7.96816 30.147
lradius 44.9176
lwrist -37.49
lhand -71.0365 -96.0185
lfingers 7.12502
lthumb -42.58 -480.411
rfemur -16.9206 -25.8274 21.6284
rtibia 60.0757
rfoot 0.492143 19.7098
rtoes -15.3868
lfemur -48.362 6.62512 19.2196
ltibia 64.6957
lfoot -19.6392 -7.6341
ltoes -5.49961
